<svg width="12" height="12" viewBox="0 0 12 12" fill="none" xmlns="http://www.w3.org/2000/svg">
<path fill-rule="evenodd" clip-rule="evenodd" d="M5 2.5C5 2.23478 5.10536 1.98043 5.29289 1.79289C5.48043 1.60536 5.73478 1.5 6 1.5C6.26522 1.5 6.51957 1.60536 6.70711 1.79289C6.89464 1.98043 7 2.23478 7 2.5V3H5V2.5ZM4 4V5C4 5.13261 4.05268 5.25979 4.14645 5.35355C4.24021 5.44732 4.36739 5.5 4.5 5.5C4.63261 5.5 4.75979 5.44732 4.85355 5.35355C4.94732 5.25979 5 5.13261 5 5V4H7V5C7 5.13261 7.05268 5.25979 7.14645 5.35355C7.24021 5.44732 7.36739 5.5 7.5 5.5C7.63261 5.5 7.75979 5.44732 7.85355 5.35355C7.94732 5.25979 8 5.13261 8 5V4H8.312C8.42466 4.00005 8.53401 4.03815 8.62231 4.10812C8.71062 4.17809 8.7727 4.27583 8.7985 4.3855L8.9685 5.1065C9.32171 6.6079 9.50006 8.14511 9.5 9.6875V10C9.5 10.1326 9.44732 10.2598 9.35355 10.3536C9.25979 10.4473 9.13261 10.5 9 10.5H3C2.86739 10.5 2.74021 10.4473 2.64645 10.3536C2.55268 10.2598 2.5 10.1326 2.5 10V9.6875C2.5 8.145 2.6785 6.6075 3.0315 5.1065L3.2015 4.3855C3.2273 4.27583 3.28938 4.17809 3.37769 4.10812C3.46599 4.03815 3.57534 4.00005 3.688 4H4ZM4 3V2.5C4 1.96957 4.21071 1.46086 4.58579 1.08579C4.96086 0.710714 5.46957 0.5 6 0.5C6.53043 0.5 7.03914 0.710714 7.41421 1.08579C7.78929 1.46086 8 1.96957 8 2.5V3H8.312C8.65008 3.00003 8.97823 3.11427 9.24325 3.32419C9.50826 3.53411 9.69458 3.8274 9.772 4.1565L9.942 4.8775C10.3129 6.45395 10.5001 8.06801 10.5 9.6875V10C10.5 10.3978 10.342 10.7794 10.0607 11.0607C9.77936 11.342 9.39782 11.5 9 11.5H3C2.60218 11.5 2.22064 11.342 1.93934 11.0607C1.65804 10.7794 1.5 10.3978 1.5 10V9.6875C1.49991 8.06801 1.68715 6.45395 2.058 4.8775L2.228 4.1565C2.30542 3.8274 2.49174 3.53411 2.75676 3.32419C3.02177 3.11427 3.34992 3.00003 3.688 3H4Z" fill="black"/>
</svg>
