<svg width="12" height="12" viewBox="0 0 12 12" fill="none" xmlns="http://www.w3.org/2000/svg">
<path fill-rule="evenodd" clip-rule="evenodd" d="M8.5 3C8.5 3.66304 8.23661 4.29893 7.76777 4.76777C7.29893 5.23661 6.66304 5.5 6 5.5C5.33696 5.5 4.70107 5.23661 4.23223 4.76777C3.76339 4.29893 3.5 3.66304 3.5 3C3.5 2.33696 3.76339 1.70107 4.23223 1.23223C4.70107 0.763392 5.33696 0.5 6 0.5C6.66304 0.5 7.29893 0.763392 7.76777 1.23223C8.23661 1.70107 8.5 2.33696 8.5 3ZM7.5 3C7.5 3.39782 7.34196 3.77936 7.06066 4.06066C6.77936 4.34196 6.39782 4.5 6 4.5C5.60218 4.5 5.22064 4.34196 4.93934 4.06066C4.65804 3.77936 4.5 3.39782 4.5 3C4.5 2.60218 4.65804 2.22064 4.93934 1.93934C5.22064 1.65804 5.60218 1.5 6 1.5C6.39782 1.5 6.77936 1.65804 7.06066 1.93934C7.34196 2.22064 7.5 2.60218 7.5 3ZM10.5 9.9005V9.3335C10.5 7.111 8.25 6 6 6C3.75 6 1.5 7.111 1.5 9.3335V9.9C1.5 10.5275 1.895 11.08 2.511 11.2C3.2585 11.346 4.422 11.5 6 11.5C7.578 11.5 8.7415 11.346 9.4895 11.2C10.105 11.08 10.5 10.5275 10.5 9.9V9.9005ZM9.5 9.3335V9.9C9.50243 9.98427 9.47752 10.0671 9.429 10.136C9.39776 10.1795 9.35075 10.2091 9.298 10.2185C8.612 10.3525 7.513 10.4995 6 10.4995C4.487 10.4995 3.388 10.3525 2.702 10.2185C2.64925 10.2091 2.60224 10.1795 2.571 10.136C2.52248 10.0671 2.49757 9.98427 2.5 9.9V9.333C2.5 8.6155 2.842 8.0725 3.456 7.668C4.1 7.245 5.021 7 6 7C6.979 7 7.9 7.245 8.544 7.6685C9.158 8.073 9.5 8.616 9.5 9.3335Z" fill="black"/>
</svg>
