<svg width="6" height="12" viewBox="0 0 6 12" fill="none" xmlns="http://www.w3.org/2000/svg">
<g clip-path="url(#clip0_4090_1002)">
<path fill-rule="evenodd" clip-rule="evenodd" d="M5.37626 2.17074C5.41954 2.22019 5.45265 2.2777 5.47369 2.33996C5.49473 2.40222 5.50328 2.46801 5.49887 2.53359C5.49446 2.59916 5.47717 2.66321 5.44798 2.7221C5.41879 2.78098 5.37828 2.83353 5.32876 2.87674L1.75876 6.00024L5.32876 9.12374C5.42862 9.21106 5.48969 9.33447 5.49855 9.46683C5.50741 9.59918 5.46333 9.72963 5.37601 9.82949C5.28869 9.92934 5.16528 9.99042 5.03292 9.99928C4.90057 10.0081 4.77012 9.96406 4.67026 9.87674L0.670261 6.37674C0.616556 6.32981 0.573513 6.27193 0.544021 6.20699C0.51453 6.14206 0.499271 6.07156 0.499271 6.00024C0.499271 5.92892 0.51453 5.85842 0.544021 5.79348C0.573513 5.72855 0.616556 5.67067 0.670261 5.62374L4.67026 2.12374C4.71972 2.08046 4.77722 2.04735 4.83948 2.02631C4.90174 2.00527 4.96754 1.99672 5.03311 2.00113C5.09868 2.00554 5.16274 2.02283 5.22162 2.05202C5.2805 2.08121 5.33305 2.12122 5.37626 2.17074Z" fill="black"/>
</g>
<defs>
<clipPath id="clip0_4090_1002">
<rect width="12" height="6" fill="white" transform="translate(6) rotate(90)"/>
</clipPath>
</defs>
</svg>
