<svg width="12" height="12" viewBox="0 0 12 12" fill="none" xmlns="http://www.w3.org/2000/svg">
<path fill-rule="evenodd" clip-rule="evenodd" d="M3.31184 2.088L2.68384 4.285L2.52684 4.2575C2.30199 4.21911 2.07974 4.16685 1.86134 4.101C1.8123 4.08571 1.76392 4.06836 1.71634 4.049C1.59794 3.99528 1.46327 3.9898 1.34089 4.03371C1.21851 4.07763 1.11805 4.16749 1.06082 4.28423C1.00358 4.40098 0.994074 4.53543 1.03431 4.65906C1.07455 4.7827 1.16136 4.8858 1.27634 4.9465L1.28884 4.953L1.27684 4.947H1.27734L1.27884 4.948L1.28184 4.9495L1.28884 4.953C1.31338 4.96472 1.3384 4.97539 1.36384 4.985C1.41034 5.0035 1.47484 5.0275 1.56034 5.0545C1.73084 5.1085 1.98584 5.1755 2.34784 5.2415C3.07134 5.3735 4.22684 5.5 5.99984 5.5C7.77284 5.5 8.92834 5.3735 9.65184 5.242C9.91797 5.19608 10.181 5.13362 10.4393 5.055C10.5318 5.02669 10.6225 4.9928 10.7108 4.9535L10.7178 4.95L10.7208 4.9485L10.7223 4.948L10.7228 4.9475L10.6918 4.962L10.7233 4.947C10.8383 4.8863 10.9251 4.7832 10.9654 4.65956C11.0056 4.53593 10.9961 4.40148 10.9389 4.28473C10.8816 4.16799 10.7812 4.07813 10.6588 4.03421C10.5364 3.9903 10.4017 3.99578 10.2833 4.0495C10.2358 4.06886 10.1874 4.08621 10.1383 4.1015C10.0123 4.1415 9.79834 4.199 9.47334 4.258L9.31584 4.2855L8.68784 2.088C8.5983 1.77453 8.40907 1.49876 8.14879 1.30245C7.88851 1.10613 7.57136 0.999959 7.24534 1H4.75484C4.42883 0.999959 4.11168 1.10613 3.8514 1.30245C3.59112 1.49876 3.40139 1.77453 3.31184 2.088ZM4.75434 2C4.64567 1.99994 4.53993 2.03529 4.45314 2.1007C4.36635 2.16611 4.30323 2.25801 4.27334 2.3625L3.68834 4.409C4.28884 4.4625 5.04834 4.5 5.99984 4.5C6.95184 4.5 7.71184 4.4625 8.31084 4.409L7.72584 2.3625C7.69601 2.25818 7.63304 2.16639 7.54645 2.101C7.45986 2.03561 7.35435 2.00016 7.24584 2H4.75434ZM5.43684 9C5.31398 9.47024 5.02416 9.8797 4.62151 10.1519C4.21885 10.4241 3.73089 10.5405 3.24873 10.4792C2.76658 10.418 2.32319 10.1834 2.00136 9.81914C1.67953 9.45493 1.50126 8.98603 1.49984 8.5C1.49936 8.01287 1.67669 7.54231 1.99853 7.17664C2.32038 6.81097 2.76462 6.57533 3.24787 6.51396C3.73112 6.45259 4.22016 6.5697 4.62319 6.8433C5.02622 7.11691 5.31554 7.52821 5.43684 8H6.56284C6.68571 7.52976 6.97553 7.1203 7.37818 6.8481C7.78084 6.5759 8.2688 6.45955 8.75096 6.52078C9.23311 6.58202 9.6765 6.81665 9.99833 7.18086C10.3202 7.54507 10.4984 8.01397 10.4998 8.5C10.5003 8.98713 10.323 9.45769 10.0012 9.82336C9.67931 10.189 9.23507 10.4247 8.75182 10.486C8.26857 10.5474 7.77953 10.4303 7.3765 10.1567C6.97347 9.88309 6.68415 9.47179 6.56284 9H5.43684ZM4.49984 8.515C4.49589 8.77889 4.38777 9.03051 4.19906 9.21502C4.01036 9.39952 3.75637 9.50195 3.49246 9.49997C3.22855 9.49799 2.97612 9.39177 2.7902 9.20445C2.60429 9.01713 2.49996 8.76392 2.49996 8.5C2.49996 8.23608 2.60429 7.98287 2.7902 7.79555C2.97612 7.60823 3.22855 7.50201 3.49246 7.50003C3.75637 7.49805 4.01036 7.60048 4.19906 7.78498C4.38777 7.96949 4.49589 8.22111 4.49984 8.485V8.515ZM8.49984 9.5C8.76506 9.5 9.01941 9.39464 9.20695 9.20711C9.39449 9.01957 9.49984 8.76522 9.49984 8.5C9.49984 8.23478 9.39449 7.98043 9.20695 7.79289C9.01941 7.60536 8.76506 7.5 8.49984 7.5C8.23463 7.5 7.98027 7.60536 7.79274 7.79289C7.6052 7.98043 7.49984 8.23478 7.49984 8.5C7.49984 8.76522 7.6052 9.01957 7.79274 9.20711C7.98027 9.39464 8.23463 9.5 8.49984 9.5Z" fill="black"/>
</svg>
