<svg width="12" height="12" viewBox="0 0 12 12" fill="none" xmlns="http://www.w3.org/2000/svg">
<path fill-rule="evenodd" clip-rule="evenodd" d="M6 7C6.53043 7 7.03914 6.78929 7.41421 6.41421C7.78929 6.03914 8 5.53043 8 5C8 4.46957 7.78929 3.96086 7.41421 3.58579C7.03914 3.21071 6.53043 3 6 3C5.46957 3 4.96086 3.21071 4.58579 3.58579C4.21071 3.96086 4 4.46957 4 5C4 5.53043 4.21071 6.03914 4.58579 6.41421C4.96086 6.78929 5.46957 7 6 7ZM6 6C6.26522 6 6.51957 5.89464 6.70711 5.70711C6.89464 5.51957 7 5.26522 7 5C7 4.73478 6.89464 4.48043 6.70711 4.29289C6.51957 4.10536 6.26522 4 6 4C5.73478 4 5.48043 4.10536 5.29289 4.29289C5.10536 4.48043 5 4.73478 5 5C5 5.26522 5.10536 5.51957 5.29289 5.70711C5.48043 5.89464 5.73478 6 6 6Z" fill="black"/>
<path fill-rule="evenodd" clip-rule="evenodd" d="M4.586 10.215C3.94047 9.85626 3.36669 9.38148 2.8935 8.81449C1.99297 7.7356 1.4998 6.37481 1.5 4.96949V2.91749C1.5 2.65999 1.64 2.42249 1.865 2.29749C3.12991 1.59481 4.55302 1.22607 6 1.22607C7.44698 1.22607 8.87009 1.59481 10.135 2.29749C10.36 2.42249 10.5 2.65999 10.5 2.91749V4.96999C10.5 6.03999 10.2139 7.09054 9.6713 8.01276C9.12869 8.93498 8.34934 9.69532 7.414 10.215L6.4855 10.731C6.33698 10.8135 6.16989 10.8567 6 10.8567C5.83011 10.8567 5.66302 10.8135 5.5145 10.731L4.586 10.215ZM9.5 3.08999C8.42079 2.522 7.21955 2.22519 6 2.22519C4.78045 2.22519 3.57921 2.522 2.5 3.08999V4.96999C2.5 6.13999 2.9085 7.25099 3.624 8.12899C4.277 7.70949 5.1385 7.49999 6 7.49999C6.8615 7.49999 7.723 7.70949 8.376 8.12849C9.10317 7.23628 9.50018 6.12048 9.5 4.96949V3.09049V3.08999ZM6 8.49999C5.378 8.49999 4.798 8.63349 4.3575 8.85899C4.579 9.03799 4.8175 9.19899 5.072 9.34049L6 9.85599L6.928 9.34049C7.17958 9.20085 7.41864 9.03976 7.6425 8.85899C7.2025 8.63349 6.6225 8.49999 6 8.49999Z" fill="black"/>
</svg>
