<svg width="16" height="16" viewBox="0 0 16 16" fill="none" xmlns="http://www.w3.org/2000/svg">
<g clip-path="url(#clip0_4540_1033)">
<path d="M16 8.04848C16 3.60302 12.418 -0.000732422 7.99949 -0.000732422C3.58095 -0.000732422 -0.000976562 3.60302 -0.000976562 8.04848C-0.000976562 12.0661 2.92468 15.3961 6.74942 15.9999V10.3752H4.71805V8.04848H6.74942V6.27514C6.74942 4.2578 7.94383 3.14349 9.77132 3.14349C10.6466 3.14349 11.5622 3.3007 11.5622 3.3007V5.28156H10.5534C9.55951 5.28156 9.24957 5.90203 9.24957 6.53857V8.04848H11.4684L11.1137 10.3752H9.24957V15.9999C13.0743 15.3961 16 12.0661 16 8.04848Z" fill="black"/>
</g>
<defs>
<clipPath id="clip0_4540_1033">
<rect width="16" height="16" fill="white"/>
</clipPath>
</defs>
</svg>
